# xmcd
#
# Track frame offsets: 
#        150
#        10349
#        30151
#        44146
#        69533
#        100596
#        124305
#        141784
#        159764
#        184687
#        210012
#        236472
#        272790
#        323348
#        338174
#
# Disc length: 4722 seconds
#
# Revision: 1
# Processed by: cddbd v1.5.2PL0 Copyright (c) Steve Scherf et al.
# Submitted via: ExactAudioCopy v0.95b4
#
DISCID=be12700f
DTITLE=Various Artist - Les Trésors du Jazz - CD 65
DYEAR=2007
DGENRE=Jazz
TTITLE0=Bud Shank - Crazy Rhythm
TTITLE1=Bud Shank and Bob Cooper - Tequila Time
TTITLE2=Kenny Clarke Plays André Hodeir - The Squirrel
TTITLE3=Tadd Dameron - Mating Call
TTITLE4=Tadd Dameron - Romas
TTITLE5=The Jimmy Giuffre Trio - Two Kinds Of Blues
TTITLE6=Al Cohn Quintet - Winter
TTITLE7=Kid Ory - Dipper Mouth Blues
TTITLE8=Thelonious Monk - I Surrender Dear
TTITLE9=Lester Young - Lester Leaps In
TTITLE10=Jazz Messengers - Just For Marty
TTITLE11=Sonny Rollins Quintet - Decision
TTITLE12=Tal Farlow - Yesterdays
TTITLE13=Kai Winding Septet - Who Me?
TTITLE14=The Jimmy Giuffre Trio - The Train And The River
EXTD=YEAR: 2007
EXTT0=
EXTT1=
EXTT2=
EXTT3=
EXTT4=
EXTT5=
EXTT6=
EXTT7=
EXTT8=
EXTT9=
EXTT10=
EXTT11=
EXTT12=
EXTT13=
EXTT14=
PLAYORDER=
